<svg xmlns="http://www.w3.org/2000/svg" viewBox="0 0 1200 675">
  <defs>
    <linearGradient id="bg" x1="0" y1="0" x2="1" y2="1">
      <stop offset="0" stop-color="#0a0a0f"/>
      <stop offset="1" stop-color="#171722"/>
    </linearGradient>
    <radialGradient id="a" cx="0.26" cy="0.2" r="0.95">
      <stop offset="0" stop-color="#2d7264" stop-opacity="0.22"/>
      <stop offset="0.7" stop-color="#c9a84c" stop-opacity="0.06"/>
      <stop offset="1" stop-color="#0a0a0f" stop-opacity="0"/>
    </radialGradient>
    <radialGradient id="b" cx="0.82" cy="0.24" r="0.95">
      <stop offset="0" stop-color="#c9a84c" stop-opacity="0.18"/>
      <stop offset="0.7" stop-color="#ffffff" stop-opacity="0.06"/>
      <stop offset="1" stop-color="#0a0a0f" stop-opacity="0"/>
    </radialGradient>
    <filter id="soft" x="-20%" y="-20%" width="140%" height="140%">
      <feGaussianBlur stdDeviation="10" result="b"/>
      <feColorMatrix in="b" type="matrix" values="
        1 0 0 0 0
        0 1 0 0 0
        0 0 1 0 0
        0 0 0 .7 0" result="f"/>
      <feMerge>
        <feMergeNode in="f"/>
        <feMergeNode in="SourceGraphic"/>
      </feMerge>
    </filter>
  </defs>

  <rect width="1200" height="675" fill="url(#bg)"/>
  <rect width="1200" height="675" fill="url(#a)"/>
  <rect width="1200" height="675" fill="url(#b)"/>

  <g filter="url(#soft)" opacity="0.98">
    <rect x="120" y="106" width="960" height="464" rx="28" fill="rgba(255,255,255,0.03)" stroke="rgba(255,255,255,0.10)"/>

    <g>
      <rect x="156" y="144" width="888" height="44" rx="18" fill="rgba(0,0,0,0.18)" stroke="rgba(255,255,255,0.08)"/>
      <rect x="180" y="158" width="240" height="16" rx="8" fill="rgba(45,114,100,0.18)"/>
      <rect x="438" y="158" width="330" height="16" rx="8" fill="rgba(255,255,255,0.05)"/>
      <rect x="790" y="152" width="254" height="28" rx="14" fill="rgba(201,168,76,0.12)" stroke="rgba(201,168,76,0.24)"/>
    </g>

    <g opacity="0.98">
      <rect x="156" y="206" width="580" height="324" rx="24" fill="rgba(255,255,255,0.02)" stroke="rgba(255,255,255,0.08)"/>
      <rect x="184" y="236" width="230" height="120" rx="22" fill="rgba(45,114,100,0.12)" stroke="rgba(255,255,255,0.06)"/>
      <rect x="432" y="236" width="276" height="120" rx="22" fill="rgba(201,168,76,0.10)" stroke="rgba(255,255,255,0.06)"/>

      <rect x="184" y="380" width="524" height="126" rx="22" fill="rgba(0,0,0,0.18)" stroke="rgba(255,255,255,0.08)"/>
      <path d="M214 470 C 280 420, 330 460, 390 420 S 520 430, 570 398 S 650 420, 684 392" fill="none" stroke="rgba(45,114,100,0.65)" stroke-width="4" stroke-linecap="round"/>
      <path d="M214 456 C 280 406, 330 446, 390 406 S 520 416, 570 384 S 650 406, 684 378" fill="none" stroke="rgba(201,168,76,0.55)" stroke-width="3.5" stroke-linecap="round"/>
      <circle cx="214" cy="470" r="5" fill="rgba(45,114,100,0.9)"/>
      <circle cx="390" cy="420" r="5" fill="rgba(45,114,100,0.9)"/>
      <circle cx="684" cy="392" r="5" fill="rgba(45,114,100,0.9)"/>
    </g>

    <g opacity="0.98">
      <rect x="756" y="206" width="288" height="324" rx="24" fill="rgba(255,255,255,0.02)" stroke="rgba(255,255,255,0.08)"/>
      <circle cx="900" cy="316" r="72" fill="rgba(45,114,100,0.12)" stroke="rgba(45,114,100,0.26)"/>
      <path d="M900 268c-26 20-38 44-36 72c2 30 27 54 56 54c30 0 52-24 52-52c0-36-38-56-72-74z" fill="none" stroke="rgba(201,168,76,0.7)" stroke-width="3" stroke-linecap="round" stroke-linejoin="round"/>
      <rect x="800" y="416" width="200" height="44" rx="22" fill="rgba(45,114,100,0.14)" stroke="rgba(45,114,100,0.28)"/>
      <rect x="824" y="432" width="152" height="12" rx="6" fill="rgba(255,255,255,0.06)"/>
    </g>

    <g transform="translate(156 538)">
      <rect width="888" height="52" rx="18" fill="rgba(0,0,0,0.18)" stroke="rgba(255,255,255,0.08)"/>
      <text x="20" y="33" font-family="Segoe UI, Arial, sans-serif" font-size="16" font-weight="700" fill="rgba(242,237,227,0.92)" letter-spacing="0.6">
        EcoTrack
      </text>
      <text x="868" y="33" text-anchor="end" font-family="JetBrains Mono, ui-monospace, monospace" font-size="13" fill="rgba(201,168,76,0.85)" letter-spacing="2">
        PREVIEW
      </text>
    </g>
  </g>
</svg>
