<svg xmlns="http://www.w3.org/2000/svg" viewBox="0 0 1200 675">
  <defs>
    <radialGradient id="g1" cx="0.26" cy="0.22" r="0.9">
      <stop offset="0" stop-color="#c9a84c" stop-opacity="0.25"/>
      <stop offset="0.45" stop-color="#2d7264" stop-opacity="0.10"/>
      <stop offset="1" stop-color="#07070d" stop-opacity="0"/>
    </radialGradient>
    <radialGradient id="g2" cx="0.78" cy="0.18" r="0.85">
      <stop offset="0" stop-color="#6b3fd9" stop-opacity="0.18"/>
      <stop offset="0.6" stop-color="#c9a84c" stop-opacity="0.06"/>
      <stop offset="1" stop-color="#07070d" stop-opacity="0"/>
    </radialGradient>
    <linearGradient id="stroke" x1="0" y1="0" x2="1" y2="1">
      <stop offset="0" stop-color="#c9a84c" stop-opacity="0.55"/>
      <stop offset="0.6" stop-color="#2d7264" stop-opacity="0.35"/>
      <stop offset="1" stop-color="#ffffff" stop-opacity="0.12"/>
    </linearGradient>
    <pattern id="grid" width="28" height="28" patternUnits="userSpaceOnUse">
      <path d="M 28 0 H 0 V 28" fill="none" stroke="#ffffff" stroke-opacity="0.08" stroke-width="1"/>
    </pattern>
    <filter id="soft" x="-20%" y="-20%" width="140%" height="140%">
      <feGaussianBlur stdDeviation="10" result="b"/>
      <feColorMatrix in="b" type="matrix" values="
        1 0 0 0 0
        0 1 0 0 0
        0 0 1 0 0
        0 0 0 .65 0" result="f"/>
      <feMerge>
        <feMergeNode in="f"/>
        <feMergeNode in="SourceGraphic"/>
      </feMerge>
    </filter>
  </defs>

  <rect width="1200" height="675" fill="#07070d"/>
  <rect width="1200" height="675" fill="url(#grid)" opacity="0.6"/>
  <rect width="1200" height="675" fill="url(#g1)"/>
  <rect width="1200" height="675" fill="url(#g2)"/>

  <g filter="url(#soft)">
    <path
      d="M130 142c0-24 20-44 44-44h852c24 0 44 20 44 44v392c0 24-20 44-44 44H174c-24 0-44-20-44-44V142z"
      fill="rgba(255,255,255,0.03)"
      stroke="url(#stroke)"
      stroke-width="2"
    />

    <g opacity="0.95">
      <rect x="170" y="150" width="860" height="58" rx="18" fill="rgba(255,255,255,0.035)" stroke="rgba(255,255,255,0.10)"/>
      <circle cx="207" cy="179" r="7" fill="#c9a84c" opacity="0.85"/>
      <circle cx="233" cy="179" r="7" fill="#2d7264" opacity="0.75"/>
      <circle cx="259" cy="179" r="7" fill="#ffffff" opacity="0.28"/>
      <rect x="290" y="168" width="240" height="22" rx="11" fill="rgba(255,255,255,0.05)"/>
      <rect x="550" y="168" width="140" height="22" rx="11" fill="rgba(255,255,255,0.04)"/>
      <rect x="706" y="168" width="124" height="22" rx="11" fill="rgba(255,255,255,0.04)"/>
      <rect x="846" y="168" width="156" height="22" rx="11" fill="rgba(201,168,76,0.12)" stroke="rgba(201,168,76,0.25)"/>
    </g>

    <g>
      <rect x="170" y="230" width="520" height="140" rx="24" fill="rgba(255,255,255,0.03)" stroke="rgba(255,255,255,0.10)"/>
      <rect x="198" y="258" width="210" height="18" rx="9" fill="rgba(201,168,76,0.35)"/>
      <rect x="198" y="288" width="420" height="14" rx="7" fill="rgba(255,255,255,0.07)"/>
      <rect x="198" y="310" width="380" height="14" rx="7" fill="rgba(255,255,255,0.06)"/>
      <rect x="198" y="332" width="280" height="14" rx="7" fill="rgba(255,255,255,0.05)"/>

      <rect x="710" y="230" width="320" height="244" rx="24" fill="rgba(255,255,255,0.028)" stroke="rgba(255,255,255,0.10)"/>
      <rect x="740" y="258" width="210" height="16" rx="8" fill="rgba(255,255,255,0.06)"/>
      <rect x="740" y="286" width="250" height="14" rx="7" fill="rgba(255,255,255,0.05)"/>
      <rect x="740" y="308" width="230" height="14" rx="7" fill="rgba(255,255,255,0.045)"/>
      <rect x="740" y="354" width="260" height="46" rx="23" fill="rgba(45,114,100,0.18)" stroke="rgba(45,114,100,0.32)"/>
      <rect x="740" y="412" width="220" height="46" rx="23" fill="rgba(201,168,76,0.16)" stroke="rgba(201,168,76,0.30)"/>

      <rect x="170" y="392" width="520" height="82" rx="24" fill="rgba(255,255,255,0.022)" stroke="rgba(255,255,255,0.08)"/>
      <rect x="198" y="420" width="320" height="14" rx="7" fill="rgba(255,255,255,0.05)"/>
      <rect x="198" y="444" width="260" height="14" rx="7" fill="rgba(255,255,255,0.04)"/>
    </g>

    <g transform="translate(170 520)">
      <rect width="860" height="74" rx="24" fill="rgba(255,255,255,0.02)" stroke="rgba(255,255,255,0.08)"/>
      <g transform="translate(26 18)">
        <circle cx="20" cy="20" r="20" fill="rgba(201,168,76,0.14)" stroke="rgba(201,168,76,0.28)"/>
        <circle cx="20" cy="20" r="10" fill="none" stroke="#c9a84c" stroke-opacity="0.8" stroke-width="2"/>
        <path d="M32 32l10 10" stroke="#c9a84c" stroke-opacity="0.75" stroke-width="2" stroke-linecap="round"/>
      </g>
      <text x="92" y="38" font-family="Segoe UI, Arial, sans-serif" font-weight="700" font-size="24" fill="rgba(242,237,227,0.92)" letter-spacing="0.5">
        LensCraft
      </text>
      <text x="92" y="60" font-family="Segoe UI, Arial, sans-serif" font-weight="500" font-size="14" fill="rgba(199,192,178,0.88)" letter-spacing="0.6">
        Photography startup platform • Product-ready UI • Clean workflows
      </text>
      <text x="980" y="50" text-anchor="end" font-family="JetBrains Mono, ui-monospace, monospace" font-size="14" fill="rgba(201,168,76,0.85)" letter-spacing="2">
        PREVIEW
      </text>
    </g>
  </g>
</svg>
