<svg xmlns="http://www.w3.org/2000/svg" viewBox="0 0 1200 675">
  <defs>
    <linearGradient id="bg" x1="0" y1="0" x2="1" y2="1">
      <stop offset="0" stop-color="#0a0a0f"/>
      <stop offset="1" stop-color="#171722"/>
    </linearGradient>
    <radialGradient id="a" cx="0.28" cy="0.22" r="0.9">
      <stop offset="0" stop-color="#2d7264" stop-opacity="0.22"/>
      <stop offset="0.6" stop-color="#c9a84c" stop-opacity="0.08"/>
      <stop offset="1" stop-color="#0a0a0f" stop-opacity="0"/>
    </radialGradient>
    <radialGradient id="b" cx="0.82" cy="0.18" r="0.95">
      <stop offset="0" stop-color="#c9a84c" stop-opacity="0.20"/>
      <stop offset="0.65" stop-color="#ffffff" stop-opacity="0.06"/>
      <stop offset="1" stop-color="#0a0a0f" stop-opacity="0"/>
    </radialGradient>
    <filter id="soft" x="-20%" y="-20%" width="140%" height="140%">
      <feGaussianBlur stdDeviation="10" result="b"/>
      <feColorMatrix in="b" type="matrix" values="
        1 0 0 0 0
        0 1 0 0 0
        0 0 1 0 0
        0 0 0 .7 0" result="f"/>
      <feMerge>
        <feMergeNode in="f"/>
        <feMergeNode in="SourceGraphic"/>
      </feMerge>
    </filter>
  </defs>

  <rect width="1200" height="675" fill="url(#bg)"/>
  <rect width="1200" height="675" fill="url(#a)"/>
  <rect width="1200" height="675" fill="url(#b)"/>

  <g filter="url(#soft)" opacity="0.98">
    <rect x="120" y="106" width="960" height="464" rx="28" fill="rgba(255,255,255,0.03)" stroke="rgba(255,255,255,0.10)"/>

    <rect x="156" y="144" width="290" height="34" rx="17" fill="rgba(201,168,76,0.12)" stroke="rgba(201,168,76,0.22)"/>
    <text x="186" y="166" font-family="JetBrains Mono, ui-monospace, monospace" font-size="14" fill="rgba(201,168,76,0.9)" letter-spacing="2">
      PHOTIC • PORTFOLIO
    </text>

    <g>
      <rect x="156" y="204" width="440" height="326" rx="24" fill="rgba(255,255,255,0.02)" stroke="rgba(255,255,255,0.08)"/>
      <rect x="182" y="230" width="180" height="120" rx="18" fill="rgba(45,114,100,0.16)"/>
      <rect x="378" y="230" width="190" height="120" rx="18" fill="rgba(201,168,76,0.14)"/>
      <rect x="182" y="364" width="386" height="140" rx="20" fill="rgba(255,255,255,0.03)" stroke="rgba(255,255,255,0.08)"/>
    </g>

    <g>
      <rect x="624" y="204" width="420" height="326" rx="24" fill="rgba(255,255,255,0.02)" stroke="rgba(255,255,255,0.08)"/>
      <rect x="652" y="236" width="240" height="16" rx="8" fill="rgba(255,255,255,0.07)"/>
      <rect x="652" y="262" width="310" height="12" rx="6" fill="rgba(255,255,255,0.05)"/>
      <rect x="652" y="282" width="280" height="12" rx="6" fill="rgba(255,255,255,0.045)"/>
      <rect x="652" y="318" width="160" height="40" rx="20" fill="rgba(45,114,100,0.16)" stroke="rgba(45,114,100,0.30)"/>
      <rect x="820" y="318" width="196" height="40" rx="20" fill="rgba(201,168,76,0.14)" stroke="rgba(201,168,76,0.28)"/>
      <rect x="652" y="376" width="364" height="128" rx="20" fill="rgba(255,255,255,0.03)" stroke="rgba(255,255,255,0.07)"/>
    </g>

    <g transform="translate(156 538)">
      <rect width="888" height="52" rx="18" fill="rgba(0,0,0,0.18)" stroke="rgba(255,255,255,0.08)"/>
      <text x="20" y="33" font-family="Segoe UI, Arial, sans-serif" font-size="16" font-weight="700" fill="rgba(242,237,227,0.92)" letter-spacing="0.6">
        Photic Photography
      </text>
      <text x="868" y="33" text-anchor="end" font-family="JetBrains Mono, ui-monospace, monospace" font-size="13" fill="rgba(201,168,76,0.85)" letter-spacing="2">
        PREVIEW
      </text>
    </g>
  </g>
</svg>
