<svg xmlns="http://www.w3.org/2000/svg" viewBox="0 0 1200 675">
  <defs>
    <linearGradient id="bg" x1="0" y1="0" x2="1" y2="1">
      <stop offset="0" stop-color="#0a0a0f"/>
      <stop offset="1" stop-color="#171722"/>
    </linearGradient>
    <radialGradient id="a" cx="0.22" cy="0.18" r="0.9">
      <stop offset="0" stop-color="#c9a84c" stop-opacity="0.20"/>
      <stop offset="0.6" stop-color="#2d7264" stop-opacity="0.08"/>
      <stop offset="1" stop-color="#0a0a0f" stop-opacity="0"/>
    </radialGradient>
    <radialGradient id="b" cx="0.82" cy="0.24" r="0.95">
      <stop offset="0" stop-color="#2d7264" stop-opacity="0.20"/>
      <stop offset="0.7" stop-color="#ffffff" stop-opacity="0.06"/>
      <stop offset="1" stop-color="#0a0a0f" stop-opacity="0"/>
    </radialGradient>
    <filter id="soft" x="-20%" y="-20%" width="140%" height="140%">
      <feGaussianBlur stdDeviation="10" result="b"/>
      <feColorMatrix in="b" type="matrix" values="
        1 0 0 0 0
        0 1 0 0 0
        0 0 1 0 0
        0 0 0 .7 0" result="f"/>
      <feMerge>
        <feMergeNode in="f"/>
        <feMergeNode in="SourceGraphic"/>
      </feMerge>
    </filter>
  </defs>

  <rect width="1200" height="675" fill="url(#bg)"/>
  <rect width="1200" height="675" fill="url(#a)"/>
  <rect width="1200" height="675" fill="url(#b)"/>

  <g filter="url(#soft)" opacity="0.98">
    <rect x="120" y="106" width="960" height="464" rx="28" fill="rgba(255,255,255,0.03)" stroke="rgba(255,255,255,0.10)"/>

    <g>
      <rect x="156" y="144" width="888" height="44" rx="18" fill="rgba(0,0,0,0.18)" stroke="rgba(255,255,255,0.08)"/>
      <rect x="180" y="158" width="220" height="16" rx="8" fill="rgba(201,168,76,0.18)"/>
      <rect x="420" y="158" width="360" height="16" rx="8" fill="rgba(255,255,255,0.05)"/>
      <rect x="800" y="152" width="220" height="28" rx="14" fill="rgba(45,114,100,0.16)" stroke="rgba(45,114,100,0.30)"/>
    </g>

    <g>
      <rect x="156" y="206" width="260" height="324" rx="24" fill="rgba(255,255,255,0.02)" stroke="rgba(255,255,255,0.08)"/>
      <rect x="184" y="236" width="200" height="14" rx="7" fill="rgba(255,255,255,0.06)"/>
      <rect x="184" y="260" width="170" height="12" rx="6" fill="rgba(255,255,255,0.045)"/>
      <rect x="184" y="312" width="160" height="12" rx="6" fill="rgba(255,255,255,0.04)"/>
      <rect x="184" y="334" width="190" height="12" rx="6" fill="rgba(255,255,255,0.04)"/>
      <rect x="184" y="356" width="150" height="12" rx="6" fill="rgba(255,255,255,0.04)"/>
      <rect x="184" y="408" width="200" height="40" rx="20" fill="rgba(201,168,76,0.14)" stroke="rgba(201,168,76,0.28)"/>
    </g>

    <g>
      <rect x="432" y="206" width="612" height="324" rx="24" fill="rgba(255,255,255,0.02)" stroke="rgba(255,255,255,0.08)"/>

      <g opacity="0.95">
        <rect x="460" y="236" width="170" height="130" rx="20" fill="rgba(255,255,255,0.03)" stroke="rgba(255,255,255,0.07)"/>
        <rect x="650" y="236" width="170" height="130" rx="20" fill="rgba(255,255,255,0.03)" stroke="rgba(255,255,255,0.07)"/>
        <rect x="840" y="236" width="170" height="130" rx="20" fill="rgba(255,255,255,0.03)" stroke="rgba(255,255,255,0.07)"/>

        <rect x="480" y="258" width="130" height="66" rx="14" fill="rgba(45,114,100,0.14)"/>
        <rect x="670" y="258" width="130" height="66" rx="14" fill="rgba(201,168,76,0.14)"/>
        <rect x="860" y="258" width="130" height="66" rx="14" fill="rgba(45,114,100,0.10)"/>

        <rect x="480" y="336" width="90" height="10" rx="5" fill="rgba(255,255,255,0.06)"/>
        <rect x="670" y="336" width="100" height="10" rx="5" fill="rgba(255,255,255,0.06)"/>
        <rect x="860" y="336" width="80" height="10" rx="5" fill="rgba(255,255,255,0.06)"/>
      </g>

      <rect x="460" y="390" width="550" height="44" rx="22" fill="rgba(0,0,0,0.18)" stroke="rgba(255,255,255,0.08)"/>
      <rect x="480" y="404" width="210" height="16" rx="8" fill="rgba(255,255,255,0.05)"/>
      <rect x="710" y="404" width="140" height="16" rx="8" fill="rgba(255,255,255,0.045)"/>
      <rect x="870" y="398" width="140" height="28" rx="14" fill="rgba(201,168,76,0.14)" stroke="rgba(201,168,76,0.28)"/>
    </g>

    <g transform="translate(156 538)">
      <rect width="888" height="52" rx="18" fill="rgba(0,0,0,0.18)" stroke="rgba(255,255,255,0.08)"/>
      <text x="20" y="33" font-family="Segoe UI, Arial, sans-serif" font-size="16" font-weight="700" fill="rgba(242,237,227,0.92)" letter-spacing="0.6">
        Top Byte
      </text>
      <text x="868" y="33" text-anchor="end" font-family="JetBrains Mono, ui-monospace, monospace" font-size="13" fill="rgba(201,168,76,0.85)" letter-spacing="2">
        PREVIEW
      </text>
    </g>
  </g>
</svg>
